# MagicaVoxel @ Ephtracy

# group
g room_R_01

# material
mtllib room_R_01.mtl
usemtl palette

# normals
vn -1 0 0
vn 1 0 0
vn 0 0 1
vn 0 0 -1
vn 0 -1 0
vn 0 1 0

# texcoords
vt 0.0332031 0.5

# verts
v -50 0 -49
v -50 0 -50
v -50 99 50
v -50 99 -49
v -50 100 50
v -50 100 -50
v 49 0 50
v 49 0 15
v 49 0 -15
v 49 0 -49
v 49 50 15
v 49 50 -15
v 49 99 50
v 49 99 -49
v 50 0 50
v 50 0 15
v 50 0 -15
v 50 0 -50
v 50 50 15
v 50 50 -15
v 50 100 50
v 50 100 -50
v -50 99 50
v -50 100 50
v 49 0 50
v 49 99 50
v 50 0 50
v 50 100 50
v 49 0 -15
v 49 50 -15
v 50 0 -15
v 50 50 -15
v -50 0 -49
v -50 99 -49
v 49 0 -49
v 49 99 -49
v 49 0 15
v 49 50 15
v 50 0 15
v 50 50 15
v -50 0 -50
v -50 100 -50
v 50 0 -50
v 50 100 -50
v 49 0 50
v 50 0 50
v 49 0 15
v 50 0 15
v 49 0 -15
v 50 0 -15
v -50 0 -49
v 49 0 -49
v -50 0 -50
v 50 0 -50
v 49 50 15
v 50 50 15
v 49 50 -15
v 50 50 -15
v -50 99 50
v 49 99 50
v -50 99 -49
v 49 99 -49
v -50 100 50
v 50 100 50
v -50 100 -50
v 50 100 -50

# faces
f 4/1/1 2/1/1 1/1/1
f 5/1/1 4/1/1 3/1/1
f 6/1/1 2/1/1 4/1/1
f 6/1/1 4/1/1 5/1/1
f 11/1/1 8/1/1 7/1/1
f 12/1/1 10/1/1 9/1/1
f 13/1/1 11/1/1 7/1/1
f 13/1/1 12/1/1 11/1/1
f 14/1/1 10/1/1 12/1/1
f 14/1/1 12/1/1 13/1/1
f 15/1/2 16/1/2 19/1/2
f 17/1/2 18/1/2 20/1/2
f 15/1/2 19/1/2 21/1/2
f 19/1/2 20/1/2 21/1/2
f 20/1/2 18/1/2 22/1/2
f 21/1/2 20/1/2 22/1/2
f 26/1/3 24/1/3 23/1/3
f 27/1/3 26/1/3 25/1/3
f 28/1/3 24/1/3 26/1/3
f 28/1/3 26/1/3 27/1/3
f 31/1/3 30/1/3 29/1/3
f 32/1/3 30/1/3 31/1/3
f 35/1/3 34/1/3 33/1/3
f 36/1/3 34/1/3 35/1/3
f 37/1/4 38/1/4 39/1/4
f 39/1/4 38/1/4 40/1/4
f 41/1/4 42/1/4 43/1/4
f 43/1/4 42/1/4 44/1/4
f 47/1/5 46/1/5 45/1/5
f 48/1/5 46/1/5 47/1/5
f 52/1/5 50/1/5 49/1/5
f 53/1/5 52/1/5 51/1/5
f 54/1/5 50/1/5 52/1/5
f 54/1/5 52/1/5 53/1/5
f 57/1/5 56/1/5 55/1/5
f 58/1/5 56/1/5 57/1/5
f 61/1/5 60/1/5 59/1/5
f 62/1/5 60/1/5 61/1/5
f 63/1/6 64/1/6 65/1/6
f 65/1/6 64/1/6 66/1/6
